# xmcd
#
# Track frame offsets: 
#        150
#        13886
#        33257
#        50951
#        77484
#        96987
#        108383
#        129560
#        146046
#        170076
#        198148
#
# Disc length: 2873 seconds
#
# Revision: 2
# Processed by: cddbd v1.5.2PL0 Copyright (c) Steve Scherf et al.
# Submitted via: ExactAudioCopyFreeDBPlugin 1.0
#
DISCID=990b370b
DTITLE=Ray Charles - Let The Good Times Roll: A NW Tribute To Ray Char
DTITLE=les
DYEAR=2006
DGENRE=Blues
TTITLE0=Olivia Warfield and Paul Delay - Hallelujah, I Love Her So
TTITLE1=Kristina Michelle - Hard Times (No One Knows Better Than I)
TTITLE2=Andy Stokes - I've Got A Woman
TTITLE3=Linda Hornbuckle - Georgia On My Mind
TTITLE4=Duffy Bishop and Andy Stokes - Night Time Is The Right Time
TTITLE5=Patrick Lamb - Let The Good Times Roll
TTITLE6=Sweet Baby James Benton - Come Back Baby
TTITLE7=Linda Hornbuckle - Unchain My Heart
TTITLE8=Duffy Bishop - You Don't Know Me
TTITLE9=Norman Sylvester - What I Say
TTITLE10=Lee Garrett - Mess Around
EXTD=
EXTT0=
EXTT1=
EXTT2=
EXTT3=
EXTT4=
EXTT5=
EXTT6=
EXTT7=
EXTT8=
EXTT9=
EXTT10=
PLAYORDER=
